<svg xmlns="http://www.w3.org/2000/svg" width="390" height="780" viewBox="0 0 390 780" role="img" aria-label="TAH session board">
  <rect width="390" height="780" rx="36" fill="#0E1418"/>
  <rect x="18" y="18" width="354" height="744" rx="28" fill="#161E24" stroke="#2A3842"/>
  <text x="36" y="64" fill="#2EE6D6" font-family="ui-sans-serif,system-ui" font-size="18" font-weight="700">TAH · Signal Deck</text>
  <text x="36" y="90" fill="#9AA8B2" font-family="ui-sans-serif,system-ui" font-size="12">Session board</text>
  <g font-family="ui-sans-serif,system-ui">
    <rect x="28" y="116" width="108" height="430" rx="16" fill="#0E1418" stroke="#2A3842"/>
    <text x="42" y="144" fill="#9AA8B2" font-size="11">WORKING</text>
    <rect x="38" y="160" width="88" height="72" rx="10" fill="#1E2830"/>
    <text x="48" y="186" fill="#E6EDF2" font-size="11">Draft notes.md</text>
    <text x="48" y="204" fill="#2EE6D6" font-size="10">fs.write</text>
    <rect x="144" y="116" width="108" height="430" rx="16" fill="#0E1418" stroke="#FFB020"/>
    <text x="158" y="144" fill="#FFB020" font-size="11">NEEDS YOU</text>
    <rect x="154" y="160" width="88" height="96" rx="10" fill="#1E2830"/>
    <text x="164" y="186" fill="#E6EDF2" font-size="11">memory.write</text>
    <text x="164" y="204" fill="#FFB020" font-size="10">Ask · Write</text>
    <text x="164" y="236" fill="#9AA8B2" font-size="9">Approve to persist</text>
    <rect x="260" y="116" width="102" height="430" rx="16" fill="#0E1418" stroke="#2A3842"/>
    <text x="274" y="144" fill="#9AA8B2" font-size="11">DONE</text>
    <rect x="270" y="160" width="82" height="64" rx="10" fill="#1E2830"/>
    <text x="278" y="186" fill="#E6EDF2" font-size="11">Probe models</text>
    <text x="278" y="204" fill="#3DDC97" font-size="10">ok</text>
  </g>
  <rect x="48" y="700" width="294" height="36" rx="18" fill="#1E2830"/>
  <text x="78" y="723" fill="#9AA8B2" font-family="ui-sans-serif,system-ui" font-size="11">Board   Dispatch   Providers   Skills</text>
</svg>
